<?xml version="1.0" encoding="UTF-8"?>
<svg xmlns="http://www.w3.org/2000/svg" xmlns:xlink="http://www.w3.org/1999/xlink" width="20pt" height="20pt" viewBox="0 0 20 20" version="1.1">
<g id="surface1">
<path style=" stroke:none;fill-rule:nonzero;fill:rgb(82.745098%,12.54902%,18.823529%);fill-opacity:1;" d="M 0 12.289062 L 0 14.902344 C 0 16 0.871094 16.871094 1.933594 16.871094 L 18.066406 16.871094 C 19.128906 16.871094 20 16 20 14.902344 L 20 12.289062 Z M 0 12.289062 "/>
<path style=" stroke:none;fill-rule:nonzero;fill:rgb(75.686275%,6.27451%,14.509804%);fill-opacity:1;" d="M 18.066406 16.871094 C 19.128906 16.871094 20 16 20 14.902344 L 20 12.289062 L 12.710938 12.289062 Z M 18.066406 16.871094 "/>
<path style=" stroke:none;fill-rule:nonzero;fill:rgb(82.745098%,12.54902%,18.823529%);fill-opacity:1;" d="M 18.066406 3.128906 L 1.933594 3.128906 C 0.871094 3.128906 0 4 0 5.097656 L 0 7.710938 L 20 7.710938 L 20 5.097656 C 20 4 19.128906 3.128906 18.066406 3.128906 Z M 18.066406 3.128906 "/>
<path style=" stroke:none;fill-rule:nonzero;fill:rgb(75.686275%,6.27451%,14.509804%);fill-opacity:1;" d="M 18.066406 3.128906 L 1.933594 3.128906 L 7.289062 7.710938 L 20 7.710938 L 20 5.097656 C 20 4 19.128906 3.128906 18.066406 3.128906 Z M 18.066406 3.128906 "/>
<path style=" stroke:none;fill-rule:nonzero;fill:rgb(64.705882%,0%,10.980392%);fill-opacity:1;" d="M 18.066406 3.128906 L 1.933594 3.128906 L 16.871094 7.710938 L 20 7.710938 L 20 5.097656 C 20 4 19.128906 3.128906 18.066406 3.128906 Z M 18.066406 3.128906 "/>
<path style=" stroke:none;fill-rule:nonzero;fill:rgb(100%,81.568627%,20.392157%);fill-opacity:1;" d="M 0 5.675781 L 0 14.324219 L 20 14.324219 L 20 5.675781 Z M 0 5.675781 "/>
<path style=" stroke:none;fill-rule:nonzero;fill:rgb(100%,73.72549%,0%);fill-opacity:1;" d="M 7.257812 7.644531 L 12.742188 12.355469 L 15.066406 14.324219 L 20 14.324219 L 20 5.675781 L 4.933594 5.675781 Z M 7.257812 7.644531 "/>
<path style=" stroke:none;fill-rule:nonzero;fill:rgb(100%,66.666667%,0%);fill-opacity:1;" d="M 10.289062 5.675781 L 16.710938 7.644531 L 20 8.644531 L 20 5.675781 Z M 10.289062 5.675781 "/>
<path style=" stroke:none;fill-rule:nonzero;fill:rgb(64.705882%,0%,10.980392%);fill-opacity:1;" d="M 20 14.902344 C 20 16 19.128906 16.871094 18.066406 16.871094 L 1.933594 16.871094 C 0.871094 16.871094 0 16 0 14.902344 "/>
<path style=" stroke:none;fill-rule:nonzero;fill:rgb(64.705882%,0%,10.980392%);fill-opacity:1;" d="M 2.804688 9.871094 L 2.804688 11.226562 C 2.804688 11.902344 3.355469 12.453125 4.03125 12.453125 C 4.710938 12.453125 5.257812 11.902344 5.257812 11.226562 L 5.257812 9.871094 Z M 2.804688 9.871094 "/>
<path style=" stroke:none;fill-rule:nonzero;fill:rgb(64.705882%,0%,10.980392%);fill-opacity:1;" d="M 5.546875 10.066406 L 5.933594 10.066406 L 5.933594 11.933594 L 5.546875 11.933594 Z M 5.546875 10.066406 "/>
<path style=" stroke:none;fill-rule:nonzero;fill:rgb(64.705882%,0%,10.980392%);fill-opacity:1;" d="M 6.097656 12.160156 C 6.066406 12.128906 6.03125 12.128906 5.96875 12.128906 C 5.933594 12.128906 5.871094 12.128906 5.839844 12.160156 C 5.804688 12.195312 5.773438 12.195312 5.710938 12.195312 C 5.675781 12.195312 5.613281 12.195312 5.582031 12.160156 C 5.546875 12.160156 5.515625 12.128906 5.453125 12.128906 C 5.386719 12.128906 5.355469 12.128906 5.324219 12.160156 C 5.289062 12.195312 5.257812 12.195312 5.195312 12.195312 L 5.195312 12.257812 C 5.226562 12.257812 5.289062 12.257812 5.324219 12.226562 C 5.355469 12.226562 5.386719 12.195312 5.453125 12.195312 C 5.515625 12.195312 5.546875 12.195312 5.582031 12.226562 C 5.613281 12.257812 5.644531 12.257812 5.710938 12.257812 C 5.742188 12.257812 5.804688 12.257812 5.839844 12.226562 C 5.871094 12.226562 5.902344 12.195312 5.96875 12.195312 C 6 12.195312 6.066406 12.195312 6.097656 12.226562 C 6.128906 12.257812 6.195312 12.257812 6.226562 12.257812 L 6.226562 12.195312 C 6.195312 12.195312 6.128906 12.195312 6.097656 12.160156 Z M 6.097656 12.160156 "/>
<path style=" stroke:none;fill-rule:nonzero;fill:rgb(64.705882%,0%,10.980392%);fill-opacity:1;" d="M 6 12.289062 C 5.96875 12.289062 5.902344 12.289062 5.871094 12.324219 C 5.839844 12.355469 5.804688 12.355469 5.742188 12.355469 C 5.710938 12.355469 5.644531 12.355469 5.613281 12.324219 C 5.582031 12.324219 5.546875 12.289062 5.484375 12.289062 C 5.417969 12.289062 5.386719 12.289062 5.355469 12.324219 C 5.324219 12.355469 5.289062 12.355469 5.226562 12.355469 L 5.226562 12.417969 C 5.257812 12.417969 5.324219 12.417969 5.355469 12.386719 C 5.386719 12.386719 5.417969 12.355469 5.484375 12.355469 C 5.546875 12.355469 5.582031 12.355469 5.613281 12.386719 C 5.644531 12.417969 5.675781 12.417969 5.742188 12.417969 C 5.773438 12.417969 5.839844 12.417969 5.871094 12.386719 C 5.902344 12.386719 5.933594 12.355469 6 12.355469 C 6.03125 12.355469 6.097656 12.355469 6.128906 12.386719 C 6.160156 12.417969 6.195312 12.417969 6.257812 12.417969 L 6.257812 12.355469 C 6.226562 12.355469 6.160156 12.355469 6.128906 12.324219 C 6.066406 12.289062 6.03125 12.289062 6 12.289062 Z M 6 12.289062 "/>
<path style=" stroke:none;fill-rule:nonzero;fill:rgb(64.705882%,0%,10.980392%);fill-opacity:1;" d="M 6 12.417969 C 5.96875 12.417969 5.902344 12.417969 5.871094 12.453125 C 5.839844 12.484375 5.804688 12.484375 5.742188 12.484375 C 5.710938 12.484375 5.644531 12.484375 5.613281 12.453125 C 5.582031 12.453125 5.546875 12.417969 5.484375 12.417969 C 5.417969 12.417969 5.386719 12.417969 5.355469 12.453125 C 5.324219 12.484375 5.289062 12.484375 5.226562 12.484375 L 5.226562 12.546875 C 5.257812 12.546875 5.324219 12.546875 5.355469 12.515625 C 5.386719 12.515625 5.417969 12.484375 5.484375 12.484375 C 5.546875 12.484375 5.582031 12.484375 5.613281 12.515625 C 5.644531 12.546875 5.675781 12.546875 5.742188 12.546875 C 5.773438 12.546875 5.839844 12.546875 5.871094 12.515625 C 5.902344 12.515625 5.933594 12.484375 6 12.484375 C 6.03125 12.484375 6.097656 12.484375 6.128906 12.515625 C 6.160156 12.546875 6.195312 12.546875 6.257812 12.546875 L 6.257812 12.484375 C 6.226562 12.484375 6.160156 12.484375 6.128906 12.453125 C 6.066406 12.453125 6.03125 12.417969 6 12.417969 Z M 6 12.417969 "/>
<path style=" stroke:none;fill-rule:nonzero;fill:rgb(64.705882%,0%,10.980392%);fill-opacity:1;" d="M 6 11.96875 C 6 12 5.96875 12.03125 5.933594 12.03125 L 5.515625 12.03125 C 5.484375 12.03125 5.453125 12 5.453125 11.96875 C 5.453125 11.933594 5.484375 11.902344 5.515625 11.902344 L 5.933594 11.902344 C 5.96875 11.902344 6 11.933594 6 11.96875 Z M 6 11.96875 "/>
<path style=" stroke:none;fill-rule:nonzero;fill:rgb(64.705882%,0%,10.980392%);fill-opacity:1;" d="M 6 10.03125 C 6 10.066406 5.96875 10.097656 5.933594 10.097656 L 5.515625 10.097656 C 5.484375 10.097656 5.453125 10.066406 5.453125 10.03125 C 5.453125 10 5.484375 9.96875 5.515625 9.96875 L 5.933594 9.96875 C 5.96875 10 6 10 6 10.03125 Z M 6 10.03125 "/>
<path style=" stroke:none;fill-rule:nonzero;fill:rgb(82.745098%,12.54902%,18.823529%);fill-opacity:1;" d="M 2.160156 10.066406 L 2.546875 10.066406 L 2.546875 11.933594 L 2.160156 11.933594 Z M 2.160156 10.066406 "/>
<path style=" stroke:none;fill-rule:nonzero;fill:rgb(82.745098%,12.54902%,18.823529%);fill-opacity:1;" d="M 2.710938 12.160156 C 2.675781 12.128906 2.644531 12.128906 2.582031 12.128906 C 2.546875 12.128906 2.484375 12.128906 2.453125 12.160156 C 2.417969 12.195312 2.386719 12.195312 2.324219 12.195312 C 2.289062 12.195312 2.226562 12.195312 2.195312 12.160156 C 2.160156 12.160156 2.128906 12.128906 2.066406 12.128906 C 2.03125 12.128906 1.96875 12.128906 1.933594 12.160156 C 1.902344 12.195312 1.871094 12.195312 1.804688 12.195312 L 1.804688 12.257812 C 1.839844 12.257812 1.902344 12.257812 1.933594 12.226562 C 1.96875 12.226562 2 12.195312 2.066406 12.195312 C 2.097656 12.195312 2.160156 12.195312 2.195312 12.226562 C 2.257812 12.257812 2.289062 12.257812 2.355469 12.257812 C 2.386719 12.257812 2.453125 12.257812 2.484375 12.226562 C 2.515625 12.226562 2.546875 12.195312 2.613281 12.195312 C 2.644531 12.195312 2.710938 12.195312 2.742188 12.226562 C 2.742188 12.257812 2.773438 12.257812 2.839844 12.257812 L 2.839844 12.195312 C 2.773438 12.195312 2.742188 12.195312 2.710938 12.160156 Z M 2.710938 12.160156 "/>
<path style=" stroke:none;fill-rule:nonzero;fill:rgb(82.745098%,12.54902%,18.823529%);fill-opacity:1;" d="M 2.582031 12.289062 C 2.546875 12.289062 2.484375 12.289062 2.453125 12.324219 C 2.417969 12.355469 2.386719 12.355469 2.324219 12.355469 C 2.289062 12.355469 2.226562 12.355469 2.195312 12.324219 C 2.160156 12.324219 2.128906 12.289062 2.066406 12.289062 C 2.03125 12.289062 1.96875 12.289062 1.933594 12.324219 C 1.902344 12.355469 1.871094 12.355469 1.804688 12.355469 L 1.804688 12.417969 C 1.839844 12.417969 1.902344 12.417969 1.933594 12.386719 C 1.96875 12.386719 2 12.355469 2.066406 12.355469 C 2.097656 12.355469 2.160156 12.355469 2.195312 12.386719 C 2.226562 12.417969 2.257812 12.417969 2.324219 12.417969 C 2.355469 12.417969 2.417969 12.417969 2.453125 12.386719 C 2.484375 12.386719 2.515625 12.355469 2.582031 12.355469 C 2.613281 12.355469 2.675781 12.355469 2.710938 12.386719 C 2.742188 12.417969 2.773438 12.417969 2.839844 12.417969 L 2.839844 12.355469 C 2.804688 12.355469 2.742188 12.355469 2.710938 12.324219 C 2.675781 12.289062 2.644531 12.289062 2.582031 12.289062 Z M 2.582031 12.289062 "/>
<path style=" stroke:none;fill-rule:nonzero;fill:rgb(82.745098%,12.54902%,18.823529%);fill-opacity:1;" d="M 2.582031 12.417969 C 2.546875 12.417969 2.484375 12.417969 2.453125 12.453125 C 2.417969 12.484375 2.386719 12.484375 2.324219 12.484375 C 2.289062 12.484375 2.226562 12.484375 2.195312 12.453125 C 2.160156 12.453125 2.128906 12.417969 2.066406 12.417969 C 2.03125 12.417969 1.96875 12.417969 1.933594 12.453125 C 1.902344 12.484375 1.871094 12.484375 1.804688 12.484375 L 1.804688 12.546875 C 1.839844 12.546875 1.902344 12.546875 1.933594 12.515625 C 1.96875 12.515625 2 12.484375 2.066406 12.484375 C 2.097656 12.484375 2.160156 12.484375 2.195312 12.515625 C 2.226562 12.546875 2.257812 12.546875 2.324219 12.546875 C 2.355469 12.546875 2.417969 12.546875 2.453125 12.515625 C 2.484375 12.515625 2.515625 12.484375 2.582031 12.484375 C 2.613281 12.484375 2.675781 12.484375 2.710938 12.515625 C 2.742188 12.546875 2.773438 12.546875 2.839844 12.546875 L 2.839844 12.484375 C 2.804688 12.484375 2.742188 12.484375 2.710938 12.453125 C 2.675781 12.453125 2.644531 12.417969 2.582031 12.417969 Z M 2.582031 12.417969 "/>
<path style=" stroke:none;fill-rule:nonzero;fill:rgb(82.745098%,12.54902%,18.823529%);fill-opacity:1;" d="M 2.613281 11.96875 C 2.613281 12 2.582031 12.03125 2.546875 12.03125 L 2.128906 12.03125 C 2.097656 12.03125 2.066406 12 2.066406 11.96875 C 2.066406 11.933594 2.097656 11.902344 2.128906 11.902344 L 2.546875 11.902344 C 2.582031 11.902344 2.613281 11.933594 2.613281 11.96875 Z M 2.613281 11.96875 "/>
<path style=" stroke:none;fill-rule:nonzero;fill:rgb(82.745098%,12.54902%,18.823529%);fill-opacity:1;" d="M 2.613281 10.03125 C 2.613281 10.066406 2.582031 10.097656 2.546875 10.097656 L 2.128906 10.097656 C 2.097656 10.097656 2.066406 10.066406 2.066406 10.03125 C 2.097656 10 2.128906 10 2.128906 10 L 2.546875 10 C 2.582031 10 2.613281 10 2.613281 10.03125 Z M 2.613281 10.03125 "/>
<path style=" stroke:none;fill-rule:nonzero;fill:rgb(64.705882%,0%,10.980392%);fill-opacity:1;" d="M 5 9.613281 C 5 9.546875 4.96875 9.515625 4.902344 9.515625 C 4.902344 9.453125 4.515625 9.417969 4.03125 9.417969 C 3.546875 9.417969 3.160156 9.453125 3.160156 9.515625 C 3.128906 9.515625 3.097656 9.582031 3.097656 9.613281 C 3.097656 9.644531 3.128906 9.710938 3.195312 9.710938 C 3.195312 9.773438 3.582031 9.804688 4.066406 9.804688 C 4.546875 9.804688 4.933594 9.773438 4.933594 9.710938 C 4.96875 9.710938 5 9.675781 5 9.613281 Z M 5 9.613281 "/>
<path style=" stroke:none;fill-rule:nonzero;fill:rgb(64.705882%,0%,10.980392%);fill-opacity:1;" d="M 5.546875 8.773438 C 5.546875 8.773438 5.515625 8.773438 5.546875 8.773438 L 5.582031 8.742188 C 5.613281 8.675781 5.644531 8.613281 5.644531 8.546875 C 5.644531 8.417969 5.546875 8.289062 5.453125 8.226562 L 5.484375 8.257812 C 5.386719 8.195312 5.226562 8.128906 5.066406 8.128906 C 5.03125 8.128906 5 8.128906 4.933594 8.128906 C 4.933594 8.128906 4.933594 8.128906 4.902344 8.128906 C 4.902344 8.128906 4.871094 8.128906 4.871094 8.160156 C 4.871094 8.160156 4.871094 8.160156 4.839844 8.160156 C 4.839844 8.160156 4.839844 8.160156 4.839844 8.195312 C 4.804688 8.160156 4.773438 8.128906 4.742188 8.097656 C 4.675781 8.03125 4.546875 7.96875 4.417969 7.96875 C 4.324219 7.96875 4.226562 8 4.128906 8.03125 C 4.128906 8.066406 4.128906 8.066406 4.128906 8.097656 C 4.195312 8.066406 4.289062 8.03125 4.386719 8.03125 C 4.582031 8.03125 4.773438 8.128906 4.773438 8.289062 L 4.773438 8.324219 C 4.773438 8.386719 4.742188 8.417969 4.710938 8.453125 C 4.613281 8.453125 4.546875 8.417969 4.484375 8.386719 C 4.386719 8.355469 4.257812 8.324219 4.128906 8.324219 C 4.128906 8.289062 4.128906 8.257812 4.128906 8.226562 C 4.128906 8.226562 4.128906 8.226562 4.128906 8.195312 C 4.128906 8.195312 4.128906 8.195312 4.128906 8.160156 C 4.128906 8.097656 4.128906 8.066406 4.128906 8.03125 C 4.128906 8 4.066406 7.96875 4.03125 7.96875 C 4.097656 7.96875 4.128906 7.933594 4.160156 7.902344 C 4.160156 7.902344 4.160156 7.871094 4.160156 7.839844 C 4.160156 7.773438 4.128906 7.742188 4.066406 7.710938 L 4.066406 7.613281 L 4.128906 7.613281 L 4.128906 7.546875 L 4.066406 7.546875 L 4.066406 7.484375 L 4 7.484375 L 4 7.546875 L 3.933594 7.546875 L 3.933594 7.613281 L 4 7.613281 L 4 7.710938 C 3.933594 7.710938 3.902344 7.773438 3.902344 7.839844 C 3.902344 7.871094 3.902344 7.871094 3.902344 7.902344 C 3.933594 7.933594 3.96875 7.96875 4 7.96875 C 3.96875 7.96875 3.933594 8 3.933594 8 C 3.933594 8 3.933594 8 3.933594 7.96875 C 3.933594 7.933594 3.933594 7.933594 3.902344 7.933594 C 3.871094 7.933594 3.871094 7.933594 3.871094 7.96875 C 3.871094 8 3.871094 8 3.902344 8 L 3.933594 8 L 3.902344 8.03125 C 3.839844 8 3.742188 7.96875 3.613281 7.96875 C 3.484375 7.96875 3.355469 8 3.289062 8.097656 C 3.257812 8.128906 3.195312 8.160156 3.195312 8.195312 C 3.195312 8.195312 3.195312 8.195312 3.195312 8.160156 C 3.195312 8.160156 3.195312 8.160156 3.160156 8.160156 C 3.160156 8.160156 3.160156 8.128906 3.128906 8.128906 L 3.097656 8.128906 C 3.066406 8.128906 3.03125 8.128906 2.96875 8.128906 C 2.804688 8.128906 2.644531 8.195312 2.546875 8.257812 L 2.582031 8.226562 C 2.453125 8.289062 2.386719 8.417969 2.386719 8.546875 C 2.386719 8.613281 2.417969 8.710938 2.453125 8.742188 L 2.484375 8.773438 C 2.453125 8.773438 2.417969 8.804688 2.417969 8.871094 C 2.417969 8.871094 2.484375 8.871094 2.515625 8.902344 C 2.546875 8.933594 2.582031 9 2.582031 9 C 2.582031 9.03125 2.582031 9.03125 2.582031 9.066406 C 2.613281 9.097656 2.613281 9.097656 2.644531 9.066406 C 2.675781 9.097656 2.710938 9.160156 2.773438 9.195312 C 2.804688 9.226562 2.871094 9.226562 2.902344 9.226562 C 2.902344 9.226562 2.902344 9.226562 2.933594 9.226562 L 2.902344 9.226562 C 2.871094 9.226562 2.871094 9.257812 2.871094 9.257812 C 2.871094 9.289062 2.902344 9.289062 2.902344 9.289062 C 2.902344 9.289062 2.933594 9.289062 2.96875 9.324219 L 3 9.355469 L 3.066406 9.386719 C 3.066406 9.417969 3.066406 9.453125 3.066406 9.453125 C 3.324219 9.386719 3.644531 9.324219 4.03125 9.324219 C 4.417969 9.324219 4.773438 9.386719 5 9.453125 C 4.96875 9.453125 4.96875 9.417969 5 9.386719 L 5.066406 9.355469 L 5.03125 9.324219 C 5.066406 9.289062 5.097656 9.289062 5.097656 9.289062 C 5.128906 9.289062 5.128906 9.289062 5.128906 9.257812 C 5.128906 9.226562 5.128906 9.226562 5.097656 9.226562 C 5.066406 9.226562 5.066406 9.226562 5.03125 9.226562 L 5.066406 9.257812 C 5.097656 9.257812 5.160156 9.257812 5.195312 9.226562 C 5.257812 9.195312 5.289062 9.128906 5.324219 9.097656 C 5.355469 9.097656 5.355469 9.097656 5.386719 9.097656 C 5.417969 9.066406 5.417969 9.03125 5.386719 9.03125 C 5.386719 9.03125 5.417969 8.96875 5.453125 8.933594 C 5.484375 8.902344 5.546875 8.902344 5.546875 8.902344 C 5.644531 8.839844 5.582031 8.773438 5.546875 8.773438 Z M 3.160156 8.226562 C 3.128906 8.226562 3.128906 8.226562 3.128906 8.257812 C 3.128906 8.289062 3.128906 8.289062 3.160156 8.289062 L 3.160156 8.324219 C 3.160156 8.324219 3.128906 8.324219 3.128906 8.355469 C 3.128906 8.386719 3.128906 8.386719 3.160156 8.386719 L 3.160156 8.417969 C 3.160156 8.417969 3.160156 8.417969 3.160156 8.453125 C 3.128906 8.453125 3.097656 8.453125 3.066406 8.453125 C 2.96875 8.453125 2.871094 8.484375 2.742188 8.515625 C 2.675781 8.546875 2.644531 8.582031 2.582031 8.582031 C 2.546875 8.546875 2.546875 8.515625 2.546875 8.453125 C 2.546875 8.417969 2.546875 8.386719 2.582031 8.355469 C 2.644531 8.226562 2.839844 8.160156 3.066406 8.160156 C 3.128906 8.160156 3.160156 8.160156 3.195312 8.160156 C 3.195312 8.195312 3.195312 8.195312 3.160156 8.226562 Z M 3.933594 8.160156 C 3.933594 8.160156 3.902344 8.195312 3.933594 8.160156 C 3.933594 8.226562 3.933594 8.257812 3.933594 8.289062 C 3.773438 8.289062 3.644531 8.324219 3.546875 8.355469 C 3.484375 8.386719 3.417969 8.386719 3.324219 8.417969 C 3.289062 8.386719 3.257812 8.324219 3.257812 8.289062 L 3.257812 8.257812 C 3.257812 8.128906 3.417969 8 3.644531 8 C 3.742188 8 3.839844 8.03125 3.902344 8.066406 L 3.902344 8.03125 C 3.933594 8.066406 3.933594 8.097656 3.933594 8.160156 C 3.902344 8.160156 3.933594 8.160156 3.933594 8.160156 Z M 5.582031 8.355469 C 5.582031 8.324219 5.546875 8.289062 5.515625 8.257812 C 5.546875 8.289062 5.546875 8.324219 5.582031 8.355469 Z M 5.484375 8.582031 C 5.453125 8.546875 5.386719 8.515625 5.324219 8.484375 C 5.195312 8.417969 5.066406 8.417969 5 8.417969 C 4.96875 8.417969 4.933594 8.417969 4.933594 8.417969 C 4.933594 8.417969 4.933594 8.386719 4.902344 8.386719 L 4.902344 8.355469 C 4.933594 8.355469 4.933594 8.355469 4.933594 8.324219 C 4.933594 8.324219 4.933594 8.289062 4.902344 8.289062 L 4.902344 8.257812 C 4.933594 8.257812 4.933594 8.257812 4.933594 8.226562 C 4.933594 8.195312 4.933594 8.195312 4.902344 8.195312 C 4.902344 8.195312 4.902344 8.160156 4.871094 8.160156 C 4.902344 8.160156 4.96875 8.160156 5 8.160156 C 5.226562 8.160156 5.417969 8.257812 5.484375 8.355469 C 5.484375 8.386719 5.515625 8.417969 5.515625 8.453125 C 5.546875 8.515625 5.515625 8.546875 5.484375 8.582031 Z M 5.484375 8.582031 "/>
<path style=" stroke:none;fill-rule:nonzero;fill:rgb(64.705882%,0%,10.980392%);fill-opacity:1;" d="M 5.675781 8.773438 C 5.675781 8.757812 5.664062 8.742188 5.644531 8.742188 C 5.628906 8.742188 5.613281 8.757812 5.613281 8.773438 C 5.613281 8.792969 5.628906 8.804688 5.644531 8.804688 C 5.664062 8.804688 5.675781 8.792969 5.675781 8.773438 Z M 5.675781 8.773438 "/>
<path style=" stroke:none;fill-rule:nonzero;fill:rgb(64.705882%,0%,10.980392%);fill-opacity:1;" d="M 5.710938 8.675781 C 5.710938 8.660156 5.695312 8.644531 5.675781 8.644531 C 5.660156 8.644531 5.644531 8.660156 5.644531 8.675781 C 5.644531 8.695312 5.660156 8.710938 5.675781 8.710938 C 5.695312 8.710938 5.710938 8.695312 5.710938 8.675781 Z M 5.710938 8.675781 "/>
<path style=" stroke:none;fill-rule:nonzero;fill:rgb(64.705882%,0%,10.980392%);fill-opacity:1;" d="M 5.742188 8.613281 C 5.742188 8.59375 5.726562 8.582031 5.710938 8.582031 C 5.691406 8.582031 5.675781 8.59375 5.675781 8.613281 C 5.675781 8.628906 5.691406 8.644531 5.710938 8.644531 C 5.726562 8.644531 5.742188 8.628906 5.742188 8.613281 Z M 5.742188 8.613281 "/>
<path style=" stroke:none;fill-rule:nonzero;fill:rgb(64.705882%,0%,10.980392%);fill-opacity:1;" d="M 5.742188 8.484375 C 5.742188 8.5 5.726562 8.515625 5.710938 8.515625 C 5.691406 8.515625 5.675781 8.5 5.675781 8.484375 C 5.675781 8.464844 5.691406 8.453125 5.710938 8.453125 C 5.726562 8.453125 5.742188 8.464844 5.742188 8.484375 Z M 5.742188 8.484375 "/>
<path style=" stroke:none;fill-rule:nonzero;fill:rgb(64.705882%,0%,10.980392%);fill-opacity:1;" d="M 5.710938 8.386719 C 5.710938 8.40625 5.695312 8.417969 5.675781 8.417969 C 5.660156 8.417969 5.644531 8.40625 5.644531 8.386719 C 5.644531 8.371094 5.660156 8.355469 5.675781 8.355469 C 5.695312 8.355469 5.710938 8.371094 5.710938 8.386719 Z M 5.710938 8.386719 "/>
<path style=" stroke:none;fill-rule:nonzero;fill:rgb(64.705882%,0%,10.980392%);fill-opacity:1;" d="M 5.644531 8.324219 C 5.675781 8.324219 5.675781 8.324219 5.675781 8.289062 C 5.675781 8.257812 5.675781 8.257812 5.644531 8.257812 C 5.613281 8.257812 5.613281 8.257812 5.613281 8.289062 C 5.613281 8.324219 5.613281 8.324219 5.644531 8.324219 Z M 5.644531 8.324219 "/>
<path style=" stroke:none;fill-rule:nonzero;fill:rgb(64.705882%,0%,10.980392%);fill-opacity:1;" d="M 5.582031 8.226562 C 5.582031 8.207031 5.566406 8.195312 5.546875 8.195312 C 5.53125 8.195312 5.515625 8.207031 5.515625 8.226562 C 5.515625 8.242188 5.53125 8.257812 5.546875 8.257812 C 5.566406 8.257812 5.582031 8.242188 5.582031 8.226562 Z M 5.582031 8.226562 "/>
<path style=" stroke:none;fill-rule:nonzero;fill:rgb(64.705882%,0%,10.980392%);fill-opacity:1;" d="M 5.515625 8.160156 C 5.515625 8.144531 5.5 8.128906 5.484375 8.128906 C 5.464844 8.128906 5.453125 8.144531 5.453125 8.160156 C 5.453125 8.179688 5.464844 8.195312 5.484375 8.195312 C 5.5 8.195312 5.515625 8.179688 5.515625 8.160156 Z M 5.515625 8.160156 "/>
<path style=" stroke:none;fill-rule:nonzero;fill:rgb(64.705882%,0%,10.980392%);fill-opacity:1;" d="M 5.417969 8.128906 C 5.417969 8.109375 5.40625 8.097656 5.386719 8.097656 C 5.371094 8.097656 5.355469 8.109375 5.355469 8.128906 C 5.355469 8.148438 5.371094 8.160156 5.386719 8.160156 C 5.40625 8.160156 5.417969 8.148438 5.417969 8.128906 Z M 5.417969 8.128906 "/>
<path style=" stroke:none;fill-rule:nonzero;fill:rgb(64.705882%,0%,10.980392%);fill-opacity:1;" d="M 5.324219 8.066406 C 5.324219 8.082031 5.308594 8.097656 5.289062 8.097656 C 5.273438 8.097656 5.257812 8.082031 5.257812 8.066406 C 5.257812 8.046875 5.273438 8.03125 5.289062 8.03125 C 5.308594 8.03125 5.324219 8.046875 5.324219 8.066406 Z M 5.324219 8.066406 "/>
<path style=" stroke:none;fill-rule:nonzero;fill:rgb(64.705882%,0%,10.980392%);fill-opacity:1;" d="M 5.195312 8.066406 C 5.195312 8.046875 5.179688 8.03125 5.160156 8.03125 C 5.144531 8.03125 5.128906 8.046875 5.128906 8.066406 C 5.128906 8.082031 5.144531 8.097656 5.160156 8.097656 C 5.179688 8.097656 5.195312 8.082031 5.195312 8.066406 Z M 5.195312 8.066406 "/>
<path style=" stroke:none;fill-rule:nonzero;fill:rgb(64.705882%,0%,10.980392%);fill-opacity:1;" d="M 5.066406 8.097656 C 5.097656 8.097656 5.097656 8.097656 5.097656 8.066406 C 5.097656 8.03125 5.066406 8.03125 5.066406 8.03125 C 5.03125 8.03125 5.03125 8.03125 5.03125 8.066406 C 5.03125 8.066406 5.03125 8.097656 5.066406 8.097656 Z M 5.066406 8.097656 "/>
<path style=" stroke:none;fill-rule:nonzero;fill:rgb(64.705882%,0%,10.980392%);fill-opacity:1;" d="M 5 8.066406 C 5 8.082031 4.984375 8.097656 4.96875 8.097656 C 4.949219 8.097656 4.933594 8.082031 4.933594 8.066406 C 4.933594 8.046875 4.949219 8.03125 4.96875 8.03125 C 4.984375 8.03125 5 8.046875 5 8.066406 Z M 5 8.066406 "/>
<path style=" stroke:none;fill-rule:nonzero;fill:rgb(64.705882%,0%,10.980392%);fill-opacity:1;" d="M 4.902344 8.066406 C 4.902344 8.082031 4.890625 8.097656 4.871094 8.097656 C 4.851562 8.097656 4.839844 8.082031 4.839844 8.066406 C 4.839844 8.046875 4.851562 8.03125 4.871094 8.03125 C 4.890625 8.03125 4.902344 8.046875 4.902344 8.066406 Z M 4.902344 8.066406 "/>
<path style=" stroke:none;fill-rule:nonzero;fill:rgb(64.705882%,0%,10.980392%);fill-opacity:1;" d="M 4.804688 8 C 4.804688 7.980469 4.792969 7.96875 4.773438 7.96875 C 4.757812 7.96875 4.742188 7.980469 4.742188 8 C 4.742188 8.019531 4.757812 8.03125 4.773438 8.03125 C 4.792969 8.03125 4.804688 8.019531 4.804688 8 Z M 4.804688 8 "/>
<path style=" stroke:none;fill-rule:nonzero;fill:rgb(64.705882%,0%,10.980392%);fill-opacity:1;" d="M 4.710938 7.933594 C 4.710938 7.917969 4.695312 7.902344 4.675781 7.902344 C 4.660156 7.902344 4.644531 7.917969 4.644531 7.933594 C 4.644531 7.953125 4.660156 7.96875 4.675781 7.96875 C 4.695312 7.96875 4.710938 7.953125 4.710938 7.933594 Z M 4.710938 7.933594 "/>
<path style=" stroke:none;fill-rule:nonzero;fill:rgb(64.705882%,0%,10.980392%);fill-opacity:1;" d="M 4.613281 7.902344 C 4.613281 7.921875 4.597656 7.933594 4.582031 7.933594 C 4.5625 7.933594 4.546875 7.921875 4.546875 7.902344 C 4.546875 7.886719 4.5625 7.871094 4.582031 7.871094 C 4.597656 7.871094 4.613281 7.886719 4.613281 7.902344 Z M 4.613281 7.902344 "/>
<path style=" stroke:none;fill-rule:nonzero;fill:rgb(64.705882%,0%,10.980392%);fill-opacity:1;" d="M 4.515625 7.902344 C 4.515625 7.886719 4.5 7.871094 4.484375 7.871094 C 4.464844 7.871094 4.453125 7.886719 4.453125 7.902344 C 4.453125 7.921875 4.464844 7.933594 4.484375 7.933594 C 4.5 7.933594 4.515625 7.921875 4.515625 7.902344 Z M 4.515625 7.902344 "/>
<path style=" stroke:none;fill-rule:nonzero;fill:rgb(64.705882%,0%,10.980392%);fill-opacity:1;" d="M 4.417969 7.902344 C 4.417969 7.886719 4.40625 7.871094 4.386719 7.871094 C 4.371094 7.871094 4.355469 7.886719 4.355469 7.902344 C 4.355469 7.921875 4.371094 7.933594 4.386719 7.933594 C 4.40625 7.933594 4.417969 7.921875 4.417969 7.902344 Z M 4.417969 7.902344 "/>
<path style=" stroke:none;fill-rule:nonzero;fill:rgb(64.705882%,0%,10.980392%);fill-opacity:1;" d="M 4.289062 7.902344 C 4.289062 7.886719 4.277344 7.871094 4.257812 7.871094 C 4.242188 7.871094 4.226562 7.886719 4.226562 7.902344 C 4.226562 7.921875 4.242188 7.933594 4.257812 7.933594 C 4.277344 7.933594 4.289062 7.921875 4.289062 7.902344 Z M 4.289062 7.902344 "/>
<path style=" stroke:none;fill-rule:nonzero;fill:rgb(64.705882%,0%,10.980392%);fill-opacity:1;" d="M 4.195312 7.933594 C 4.195312 7.953125 4.179688 7.96875 4.160156 7.96875 C 4.144531 7.96875 4.128906 7.953125 4.128906 7.933594 C 4.128906 7.917969 4.144531 7.902344 4.160156 7.902344 C 4.179688 7.902344 4.195312 7.917969 4.195312 7.933594 Z M 4.195312 7.933594 "/>
<path style=" stroke:none;fill-rule:nonzero;fill:rgb(64.705882%,0%,10.980392%);fill-opacity:1;" d="M 2.484375 8.773438 C 2.484375 8.757812 2.46875 8.742188 2.453125 8.742188 C 2.433594 8.742188 2.417969 8.757812 2.417969 8.773438 C 2.417969 8.792969 2.433594 8.804688 2.453125 8.804688 C 2.46875 8.804688 2.484375 8.792969 2.484375 8.773438 Z M 2.484375 8.773438 "/>
<path style=" stroke:none;fill-rule:nonzero;fill:rgb(64.705882%,0%,10.980392%);fill-opacity:1;" d="M 2.453125 8.675781 C 2.453125 8.660156 2.4375 8.644531 2.417969 8.644531 C 2.402344 8.644531 2.386719 8.660156 2.386719 8.675781 C 2.386719 8.695312 2.402344 8.710938 2.417969 8.710938 C 2.4375 8.710938 2.453125 8.695312 2.453125 8.675781 Z M 2.453125 8.675781 "/>
<path style=" stroke:none;fill-rule:nonzero;fill:rgb(64.705882%,0%,10.980392%);fill-opacity:1;" d="M 2.417969 8.613281 C 2.417969 8.59375 2.40625 8.582031 2.386719 8.582031 C 2.371094 8.582031 2.355469 8.59375 2.355469 8.613281 C 2.355469 8.628906 2.371094 8.644531 2.386719 8.644531 C 2.40625 8.644531 2.417969 8.628906 2.417969 8.613281 Z M 2.417969 8.613281 "/>
<path style=" stroke:none;fill-rule:nonzero;fill:rgb(64.705882%,0%,10.980392%);fill-opacity:1;" d="M 2.417969 8.484375 C 2.417969 8.464844 2.40625 8.453125 2.386719 8.453125 C 2.371094 8.453125 2.355469 8.464844 2.355469 8.484375 C 2.355469 8.5 2.371094 8.515625 2.386719 8.515625 C 2.40625 8.515625 2.417969 8.5 2.417969 8.484375 Z M 2.417969 8.484375 "/>
<path style=" stroke:none;fill-rule:nonzero;fill:rgb(64.705882%,0%,10.980392%);fill-opacity:1;" d="M 2.453125 8.386719 C 2.453125 8.371094 2.4375 8.355469 2.417969 8.355469 C 2.402344 8.355469 2.386719 8.371094 2.386719 8.386719 C 2.386719 8.40625 2.402344 8.417969 2.417969 8.417969 C 2.4375 8.417969 2.453125 8.40625 2.453125 8.386719 Z M 2.453125 8.386719 "/>
<path style=" stroke:none;fill-rule:nonzero;fill:rgb(64.705882%,0%,10.980392%);fill-opacity:1;" d="M 2.484375 8.289062 C 2.484375 8.273438 2.46875 8.257812 2.453125 8.257812 C 2.433594 8.257812 2.417969 8.273438 2.417969 8.289062 C 2.417969 8.308594 2.433594 8.324219 2.453125 8.324219 C 2.46875 8.324219 2.484375 8.308594 2.484375 8.289062 Z M 2.484375 8.289062 "/>
<path style=" stroke:none;fill-rule:nonzero;fill:rgb(64.705882%,0%,10.980392%);fill-opacity:1;" d="M 2.546875 8.226562 C 2.546875 8.242188 2.535156 8.257812 2.515625 8.257812 C 2.5 8.257812 2.484375 8.242188 2.484375 8.226562 C 2.484375 8.207031 2.5 8.195312 2.515625 8.195312 C 2.535156 8.195312 2.546875 8.207031 2.546875 8.226562 Z M 2.546875 8.226562 "/>
<path style=" stroke:none;fill-rule:nonzero;fill:rgb(64.705882%,0%,10.980392%);fill-opacity:1;" d="M 2.644531 8.160156 C 2.644531 8.144531 2.628906 8.128906 2.613281 8.128906 C 2.59375 8.128906 2.582031 8.144531 2.582031 8.160156 C 2.582031 8.179688 2.59375 8.195312 2.613281 8.195312 C 2.628906 8.195312 2.644531 8.179688 2.644531 8.160156 Z M 2.644531 8.160156 "/>
<path style=" stroke:none;fill-rule:nonzero;fill:rgb(64.705882%,0%,10.980392%);fill-opacity:1;" d="M 2.742188 8.128906 C 2.742188 8.109375 2.726562 8.097656 2.710938 8.097656 C 2.691406 8.097656 2.675781 8.109375 2.675781 8.128906 C 2.675781 8.148438 2.691406 8.160156 2.710938 8.160156 C 2.726562 8.160156 2.742188 8.148438 2.742188 8.128906 Z M 2.742188 8.128906 "/>
<path style=" stroke:none;fill-rule:nonzero;fill:rgb(64.705882%,0%,10.980392%);fill-opacity:1;" d="M 2.839844 8.066406 C 2.839844 8.082031 2.824219 8.097656 2.804688 8.097656 C 2.789062 8.097656 2.773438 8.082031 2.773438 8.066406 C 2.773438 8.046875 2.789062 8.03125 2.804688 8.03125 C 2.824219 8.03125 2.839844 8.046875 2.839844 8.066406 Z M 2.839844 8.066406 "/>
<path style=" stroke:none;fill-rule:nonzero;fill:rgb(64.705882%,0%,10.980392%);fill-opacity:1;" d="M 2.96875 8.066406 C 2.96875 8.082031 2.953125 8.097656 2.933594 8.097656 C 2.917969 8.097656 2.902344 8.082031 2.902344 8.066406 C 2.902344 8.046875 2.917969 8.03125 2.933594 8.03125 C 2.953125 8.03125 2.96875 8.046875 2.96875 8.066406 Z M 2.96875 8.066406 "/>
<path style=" stroke:none;fill-rule:nonzero;fill:rgb(64.705882%,0%,10.980392%);fill-opacity:1;" d="M 3.066406 8.066406 C 3.066406 8.046875 3.050781 8.03125 3.03125 8.03125 C 3.015625 8.03125 3 8.046875 3 8.066406 C 3 8.082031 3.015625 8.097656 3.03125 8.097656 C 3.050781 8.097656 3.066406 8.082031 3.066406 8.066406 Z M 3.066406 8.066406 "/>
<path style=" stroke:none;fill-rule:nonzero;fill:rgb(64.705882%,0%,10.980392%);fill-opacity:1;" d="M 3.160156 8.066406 C 3.160156 8.046875 3.148438 8.03125 3.128906 8.03125 C 3.109375 8.03125 3.097656 8.046875 3.097656 8.066406 C 3.097656 8.082031 3.109375 8.097656 3.128906 8.097656 C 3.148438 8.097656 3.160156 8.082031 3.160156 8.066406 Z M 3.160156 8.066406 "/>
<path style=" stroke:none;fill-rule:nonzero;fill:rgb(64.705882%,0%,10.980392%);fill-opacity:1;" d="M 3.257812 8.066406 C 3.257812 8.082031 3.242188 8.097656 3.226562 8.097656 C 3.207031 8.097656 3.195312 8.082031 3.195312 8.066406 C 3.195312 8.046875 3.207031 8.03125 3.226562 8.03125 C 3.242188 8.03125 3.257812 8.046875 3.257812 8.066406 Z M 3.257812 8.066406 "/>
<path style=" stroke:none;fill-rule:nonzero;fill:rgb(64.705882%,0%,10.980392%);fill-opacity:1;" d="M 3.355469 8 C 3.355469 7.980469 3.339844 7.96875 3.324219 7.96875 C 3.304688 7.96875 3.289062 7.980469 3.289062 8 C 3.289062 8.019531 3.304688 8.03125 3.324219 8.03125 C 3.339844 8.03125 3.355469 8.019531 3.355469 8 Z M 3.355469 8 "/>
<path style=" stroke:none;fill-rule:nonzero;fill:rgb(64.705882%,0%,10.980392%);fill-opacity:1;" d="M 3.453125 7.933594 C 3.453125 7.917969 3.4375 7.902344 3.417969 7.902344 C 3.402344 7.902344 3.386719 7.917969 3.386719 7.933594 C 3.386719 7.953125 3.402344 7.96875 3.417969 7.96875 C 3.4375 7.96875 3.453125 7.953125 3.453125 7.933594 Z M 3.453125 7.933594 "/>
<path style=" stroke:none;fill-rule:nonzero;fill:rgb(64.705882%,0%,10.980392%);fill-opacity:1;" d="M 3.546875 7.902344 C 3.546875 7.886719 3.535156 7.871094 3.515625 7.871094 C 3.5 7.871094 3.484375 7.886719 3.484375 7.902344 C 3.484375 7.921875 3.5 7.933594 3.515625 7.933594 C 3.535156 7.933594 3.546875 7.921875 3.546875 7.902344 Z M 3.546875 7.902344 "/>
<path style=" stroke:none;fill-rule:nonzero;fill:rgb(64.705882%,0%,10.980392%);fill-opacity:1;" d="M 3.644531 7.902344 C 3.644531 7.886719 3.628906 7.871094 3.613281 7.871094 C 3.59375 7.871094 3.582031 7.886719 3.582031 7.902344 C 3.582031 7.921875 3.59375 7.933594 3.613281 7.933594 C 3.628906 7.933594 3.644531 7.921875 3.644531 7.902344 Z M 3.644531 7.902344 "/>
<path style=" stroke:none;fill-rule:nonzero;fill:rgb(64.705882%,0%,10.980392%);fill-opacity:1;" d="M 3.742188 7.902344 C 3.742188 7.886719 3.726562 7.871094 3.710938 7.871094 C 3.691406 7.871094 3.675781 7.886719 3.675781 7.902344 C 3.675781 7.921875 3.691406 7.933594 3.710938 7.933594 C 3.726562 7.933594 3.742188 7.921875 3.742188 7.902344 Z M 3.742188 7.902344 "/>
<path style=" stroke:none;fill-rule:nonzero;fill:rgb(64.705882%,0%,10.980392%);fill-opacity:1;" d="M 3.871094 7.902344 C 3.871094 7.886719 3.855469 7.871094 3.839844 7.871094 C 3.820312 7.871094 3.804688 7.886719 3.804688 7.902344 C 3.804688 7.921875 3.820312 7.933594 3.839844 7.933594 C 3.855469 7.933594 3.871094 7.921875 3.871094 7.902344 Z M 3.871094 7.902344 "/>
<path style=" stroke:none;fill-rule:nonzero;fill:rgb(82.745098%,12.54902%,18.823529%);fill-opacity:1;" d="M 2.582031 9.96875 C 2.582031 9.933594 2.582031 9.933594 2.582031 9.96875 C 2.546875 9.933594 2.453125 9.933594 2.355469 9.933594 C 2.226562 9.933594 2.128906 9.933594 2.128906 9.96875 C 2.128906 9.96875 2.128906 9.96875 2.128906 10 C 2.128906 10 2.128906 10.03125 2.160156 10.03125 C 2.160156 10.03125 2.257812 10.066406 2.386719 10.066406 C 2.515625 10.066406 2.546875 10 2.582031 9.96875 Z M 2.582031 9.96875 "/>
<path style=" stroke:none;fill-rule:nonzero;fill:rgb(82.745098%,12.54902%,18.823529%);fill-opacity:1;" d="M 2.710938 9.742188 C 2.742188 9.710938 2.742188 9.710938 2.742188 9.675781 C 2.742188 9.644531 2.710938 9.613281 2.675781 9.613281 C 2.644531 9.582031 2.613281 9.582031 2.582031 9.582031 L 2.546875 9.582031 C 2.546875 9.582031 2.546875 9.546875 2.515625 9.546875 C 2.484375 9.515625 2.484375 9.515625 2.417969 9.515625 C 2.386719 9.515625 2.355469 9.515625 2.355469 9.546875 C 2.386719 9.546875 2.386719 9.515625 2.417969 9.515625 C 2.484375 9.515625 2.515625 9.546875 2.515625 9.582031 L 2.515625 9.613281 C 2.484375 9.613281 2.484375 9.613281 2.453125 9.613281 C 2.417969 9.613281 2.386719 9.613281 2.355469 9.582031 C 2.355469 9.582031 2.355469 9.582031 2.355469 9.546875 L 2.355469 9.515625 C 2.355469 9.515625 2.355469 9.484375 2.324219 9.484375 C 2.324219 9.484375 2.355469 9.484375 2.355469 9.453125 C 2.355469 9.453125 2.355469 9.417969 2.324219 9.417969 L 2.324219 9.386719 L 2.355469 9.386719 L 2.355469 9.324219 L 2.355469 9.355469 L 2.324219 9.355469 L 2.324219 9.386719 L 2.355469 9.386719 L 2.355469 9.417969 C 2.355469 9.417969 2.324219 9.417969 2.324219 9.453125 C 2.324219 9.453125 2.324219 9.484375 2.355469 9.484375 C 2.355469 9.484375 2.355469 9.484375 2.324219 9.484375 C 2.289062 9.484375 2.289062 9.453125 2.257812 9.453125 C 2.226562 9.453125 2.195312 9.453125 2.160156 9.484375 C 2.160156 9.484375 2.128906 9.484375 2.128906 9.515625 L 2.097656 9.515625 C 2.066406 9.515625 2.03125 9.515625 2 9.546875 C 1.96875 9.582031 1.933594 9.582031 1.933594 9.613281 C 1.933594 9.644531 1.933594 9.644531 1.96875 9.675781 C 1.96875 9.675781 1.933594 9.675781 1.933594 9.710938 L 1.96875 9.710938 L 2 9.742188 C 2 9.742188 2 9.742188 2 9.773438 C 2 9.773438 2 9.804688 2.03125 9.804688 L 2.066406 9.804688 C 2.066406 9.804688 2.066406 9.804688 2.066406 9.839844 C 2.128906 9.804688 2.195312 9.804688 2.289062 9.804688 C 2.386719 9.804688 2.484375 9.804688 2.515625 9.839844 C 2.515625 9.839844 2.515625 9.839844 2.515625 9.804688 L 2.546875 9.804688 L 2.582031 9.773438 C 2.582031 9.773438 2.582031 9.773438 2.582031 9.742188 C 2.675781 9.804688 2.710938 9.773438 2.710938 9.742188 C 2.710938 9.773438 2.742188 9.773438 2.710938 9.742188 C 2.742188 9.773438 2.710938 9.742188 2.710938 9.742188 Z M 2.128906 9.613281 C 2.128906 9.613281 2.128906 9.644531 2.128906 9.613281 C 2.128906 9.644531 2.128906 9.644531 2.128906 9.613281 C 2.128906 9.644531 2.128906 9.644531 2.128906 9.613281 C 2.128906 9.644531 2.128906 9.644531 2.128906 9.644531 C 2.128906 9.644531 2.128906 9.644531 2.097656 9.644531 C 2.066406 9.644531 2.03125 9.644531 2.03125 9.675781 C 2.03125 9.675781 2 9.675781 2 9.710938 L 2 9.644531 C 2 9.613281 2.066406 9.582031 2.128906 9.582031 C 2.128906 9.613281 2.128906 9.613281 2.128906 9.613281 Z M 2.324219 9.613281 C 2.289062 9.644531 2.257812 9.644531 2.226562 9.644531 C 2.226562 9.644531 2.195312 9.644531 2.160156 9.644531 L 2.160156 9.613281 C 2.160156 9.582031 2.195312 9.546875 2.257812 9.546875 C 2.289062 9.582031 2.289062 9.582031 2.324219 9.613281 C 2.324219 9.582031 2.324219 9.582031 2.324219 9.613281 C 2.324219 9.582031 2.324219 9.582031 2.324219 9.613281 Z M 2.710938 9.644531 Z M 2.710938 9.710938 C 2.710938 9.710938 2.675781 9.710938 2.675781 9.675781 C 2.644531 9.675781 2.613281 9.675781 2.582031 9.675781 C 2.582031 9.675781 2.582031 9.675781 2.546875 9.675781 L 2.582031 9.675781 C 2.644531 9.675781 2.675781 9.710938 2.710938 9.742188 C 2.710938 9.644531 2.710938 9.675781 2.710938 9.710938 C 2.710938 9.675781 2.710938 9.710938 2.710938 9.710938 Z M 2.710938 9.710938 "/>
<path style=" stroke:none;fill-rule:nonzero;fill:rgb(64.705882%,0%,10.980392%);fill-opacity:1;" d="M 5.96875 9.96875 C 5.96875 9.933594 5.96875 9.933594 5.96875 9.96875 C 5.933594 9.933594 5.839844 9.933594 5.742188 9.933594 C 5.613281 9.933594 5.515625 9.933594 5.515625 9.96875 C 5.515625 9.96875 5.515625 9.96875 5.515625 10 C 5.515625 10 5.515625 10.03125 5.546875 10.03125 C 5.546875 10.03125 5.644531 10.066406 5.773438 10.066406 C 5.871094 10 5.96875 10 5.96875 9.96875 Z M 5.96875 9.96875 "/>
<path style=" stroke:none;fill-rule:nonzero;fill:rgb(64.705882%,0%,10.980392%);fill-opacity:1;" d="M 6.097656 9.742188 C 6.128906 9.742188 6.128906 9.710938 6.128906 9.675781 C 6.128906 9.644531 6.097656 9.613281 6.066406 9.613281 C 6.03125 9.582031 6 9.582031 5.96875 9.582031 L 5.933594 9.582031 C 5.933594 9.582031 5.933594 9.546875 5.902344 9.546875 C 5.871094 9.515625 5.871094 9.515625 5.804688 9.515625 C 5.773438 9.515625 5.742188 9.515625 5.742188 9.546875 C 5.773438 9.546875 5.773438 9.515625 5.804688 9.515625 C 5.871094 9.515625 5.902344 9.546875 5.902344 9.582031 L 5.902344 9.613281 C 5.871094 9.613281 5.871094 9.613281 5.839844 9.613281 C 5.804688 9.613281 5.773438 9.613281 5.742188 9.582031 C 5.742188 9.582031 5.742188 9.582031 5.742188 9.546875 L 5.742188 9.515625 C 5.742188 9.515625 5.742188 9.484375 5.710938 9.484375 C 5.710938 9.484375 5.742188 9.484375 5.742188 9.453125 C 5.742188 9.453125 5.742188 9.417969 5.710938 9.417969 L 5.710938 9.386719 L 5.742188 9.386719 L 5.742188 9.355469 L 5.710938 9.355469 L 5.710938 9.324219 L 5.675781 9.324219 L 5.675781 9.355469 L 5.644531 9.355469 L 5.644531 9.386719 L 5.675781 9.386719 L 5.675781 9.417969 C 5.675781 9.417969 5.644531 9.417969 5.644531 9.453125 C 5.644531 9.453125 5.644531 9.484375 5.675781 9.484375 C 5.675781 9.484375 5.675781 9.484375 5.644531 9.484375 C 5.613281 9.484375 5.613281 9.453125 5.582031 9.453125 C 5.546875 9.453125 5.515625 9.453125 5.484375 9.484375 C 5.484375 9.484375 5.453125 9.484375 5.453125 9.515625 L 5.417969 9.515625 C 5.386719 9.515625 5.355469 9.515625 5.324219 9.546875 C 5.289062 9.582031 5.257812 9.582031 5.257812 9.613281 C 5.257812 9.644531 5.257812 9.644531 5.289062 9.675781 C 5.289062 9.675781 5.257812 9.675781 5.257812 9.710938 C 5.257812 9.710938 5.257812 9.710938 5.289062 9.710938 L 5.324219 9.742188 C 5.324219 9.742188 5.324219 9.742188 5.324219 9.773438 C 5.324219 9.773438 5.324219 9.804688 5.355469 9.804688 L 5.386719 9.804688 C 5.386719 9.804688 5.386719 9.804688 5.386719 9.839844 C 5.453125 9.804688 5.515625 9.804688 5.613281 9.804688 C 5.710938 9.804688 5.804688 9.804688 5.839844 9.839844 C 5.839844 9.839844 5.839844 9.839844 5.839844 9.804688 L 5.871094 9.804688 L 5.902344 9.773438 C 5.902344 9.773438 5.902344 9.773438 5.902344 9.742188 C 6.097656 9.804688 6.097656 9.773438 6.097656 9.742188 C 6.097656 9.773438 6.128906 9.773438 6.097656 9.742188 C 6.128906 9.773438 6.128906 9.742188 6.097656 9.742188 Z M 5.546875 9.613281 C 5.515625 9.613281 5.515625 9.613281 5.546875 9.613281 C 5.515625 9.613281 5.515625 9.644531 5.546875 9.613281 C 5.515625 9.644531 5.515625 9.644531 5.546875 9.613281 C 5.515625 9.644531 5.515625 9.644531 5.546875 9.613281 C 5.546875 9.644531 5.546875 9.644531 5.546875 9.644531 C 5.546875 9.644531 5.546875 9.644531 5.515625 9.644531 C 5.484375 9.644531 5.453125 9.644531 5.453125 9.675781 C 5.453125 9.675781 5.417969 9.675781 5.417969 9.710938 L 5.417969 9.644531 C 5.417969 9.613281 5.484375 9.582031 5.546875 9.582031 C 5.515625 9.613281 5.515625 9.613281 5.546875 9.613281 Z M 5.710938 9.613281 C 5.675781 9.644531 5.644531 9.644531 5.613281 9.644531 C 5.613281 9.644531 5.582031 9.644531 5.546875 9.644531 L 5.546875 9.613281 C 5.546875 9.582031 5.582031 9.546875 5.644531 9.546875 C 5.675781 9.582031 5.710938 9.582031 5.710938 9.613281 C 5.710938 9.582031 5.710938 9.582031 5.710938 9.613281 C 5.710938 9.582031 5.710938 9.582031 5.710938 9.613281 Z M 6.128906 9.644531 C 6.097656 9.644531 6.097656 9.644531 6.128906 9.644531 C 6.097656 9.644531 6.097656 9.644531 6.128906 9.644531 Z M 6.097656 9.710938 C 6.097656 9.710938 6.066406 9.710938 6.066406 9.675781 C 6.03125 9.675781 6 9.644531 6 9.644531 C 6 9.644531 6 9.644531 5.96875 9.644531 L 6 9.644531 C 6.066406 9.644531 6.097656 9.675781 6.128906 9.710938 C 6.097656 9.644531 6.097656 9.675781 6.097656 9.710938 C 6.097656 9.675781 6.097656 9.710938 6.097656 9.710938 Z M 6.097656 9.710938 "/>
<path style=" stroke:none;fill-rule:nonzero;fill:rgb(82.745098%,12.54902%,18.823529%);fill-opacity:1;" d="M 4.03125 9.324219 L 4.03125 7.453125 L 4 7.453125 L 4 7.515625 L 3.933594 7.515625 L 3.933594 7.582031 L 4 7.582031 L 4 7.675781 C 3.933594 7.675781 3.902344 7.742188 3.902344 7.804688 C 3.902344 7.839844 3.902344 7.839844 3.902344 7.871094 C 3.933594 7.902344 3.96875 7.933594 4 7.933594 C 3.96875 7.933594 3.933594 7.96875 3.933594 7.96875 C 3.933594 7.96875 3.933594 7.96875 3.933594 7.933594 C 3.933594 7.902344 3.933594 7.902344 3.902344 7.902344 C 3.871094 7.902344 3.871094 7.902344 3.871094 7.933594 C 3.871094 7.96875 3.871094 7.96875 3.902344 7.96875 L 3.933594 7.96875 L 3.902344 8 C 3.839844 7.96875 3.742188 7.933594 3.613281 7.933594 C 3.484375 7.933594 3.355469 7.96875 3.289062 8.066406 C 3.257812 8.097656 3.195312 8.128906 3.195312 8.160156 C 3.195312 8.160156 3.195312 8.160156 3.195312 8.128906 C 3.195312 8.128906 3.195312 8.128906 3.160156 8.128906 C 3.160156 8.128906 3.160156 8.097656 3.128906 8.097656 L 3.097656 8.097656 C 3.066406 8.097656 3.03125 8.097656 2.96875 8.097656 C 2.804688 8.097656 2.644531 8.160156 2.546875 8.226562 L 2.582031 8.195312 C 2.453125 8.257812 2.386719 8.386719 2.386719 8.515625 C 2.386719 8.582031 2.417969 8.675781 2.453125 8.710938 L 2.484375 8.742188 C 2.453125 8.742188 2.417969 8.773438 2.417969 8.839844 C 2.417969 8.839844 2.484375 8.839844 2.515625 8.871094 C 2.546875 8.902344 2.582031 8.96875 2.582031 8.96875 C 2.582031 9 2.582031 9 2.582031 9.03125 C 2.613281 9.066406 2.613281 9.066406 2.644531 9.03125 C 2.675781 9.066406 2.710938 9.128906 2.773438 9.160156 C 2.804688 9.195312 2.871094 9.195312 2.902344 9.195312 C 2.902344 9.195312 2.902344 9.195312 2.933594 9.195312 L 2.902344 9.195312 C 2.871094 9.195312 2.871094 9.226562 2.871094 9.226562 C 2.871094 9.257812 2.902344 9.257812 2.902344 9.257812 C 2.902344 9.257812 2.933594 9.257812 2.96875 9.289062 L 3 9.355469 L 3.066406 9.386719 C 3.066406 9.417969 3.066406 9.453125 3.066406 9.453125 C 3.324219 9.355469 3.675781 9.324219 4.03125 9.324219 Z M 3.257812 8.257812 C 3.257812 8.128906 3.417969 8 3.644531 8 C 3.742188 8 3.839844 8.03125 3.902344 8.066406 L 3.902344 8.03125 C 3.902344 8.066406 3.902344 8.097656 3.902344 8.128906 C 3.902344 8.128906 3.902344 8.128906 3.902344 8.160156 C 3.902344 8.160156 3.902344 8.160156 3.902344 8.195312 C 3.902344 8.226562 3.902344 8.257812 3.902344 8.289062 C 3.742188 8.289062 3.613281 8.324219 3.515625 8.355469 C 3.453125 8.386719 3.386719 8.386719 3.289062 8.417969 C 3.289062 8.386719 3.257812 8.324219 3.257812 8.257812 Z M 3.066406 8.417969 C 2.96875 8.417969 2.871094 8.453125 2.742188 8.484375 C 2.675781 8.515625 2.644531 8.546875 2.582031 8.546875 C 2.546875 8.515625 2.546875 8.484375 2.546875 8.417969 C 2.546875 8.386719 2.546875 8.355469 2.582031 8.324219 C 2.644531 8.195312 2.839844 8.128906 3.066406 8.128906 C 3.128906 8.128906 3.160156 8.128906 3.195312 8.128906 C 3.195312 8.128906 3.195312 8.160156 3.160156 8.160156 C 3.128906 8.160156 3.128906 8.160156 3.128906 8.195312 C 3.128906 8.226562 3.128906 8.226562 3.160156 8.226562 L 3.160156 8.257812 C 3.160156 8.257812 3.128906 8.257812 3.128906 8.289062 C 3.128906 8.324219 3.128906 8.324219 3.160156 8.324219 L 3.160156 8.355469 C 3.160156 8.355469 3.160156 8.355469 3.160156 8.386719 C 3.128906 8.417969 3.097656 8.417969 3.066406 8.417969 Z M 3.066406 8.417969 "/>
<path style=" stroke:none;fill-rule:nonzero;fill:rgb(82.745098%,12.54902%,18.823529%);fill-opacity:1;" d="M 4.03125 9.417969 C 3.515625 9.417969 3.128906 9.453125 3.128906 9.515625 C 3.097656 9.515625 3.066406 9.582031 3.066406 9.613281 C 3.066406 9.644531 3.097656 9.710938 3.160156 9.710938 C 3.160156 9.773438 3.546875 9.804688 4.03125 9.804688 Z M 4.03125 9.417969 "/>
<path style=" stroke:none;fill-rule:nonzero;fill:rgb(82.745098%,12.54902%,18.823529%);fill-opacity:1;" d="M 4.03125 9.871094 L 2.804688 9.871094 L 2.804688 11.226562 C 2.804688 11.902344 3.355469 12.453125 4.03125 12.453125 Z M 4.03125 9.871094 "/>
</g>
</svg>
