<?xml version="1.0" encoding="UTF-8"?>
<svg xmlns="http://www.w3.org/2000/svg" xmlns:xlink="http://www.w3.org/1999/xlink" width="20pt" height="20pt" viewBox="0 0 20 20" version="1.1">
<g id="surface1">
<path style=" stroke:none;fill-rule:nonzero;fill:rgb(25.490196%,27.843137%,60.784314%);fill-opacity:1;" d="M 19.65625 16.550781 L 0.34375 16.550781 C 0.15625 16.550781 0 16.398438 0 16.207031 L 0 3.792969 C 0 3.601562 0.15625 3.449219 0.34375 3.449219 L 19.65625 3.449219 C 19.84375 3.449219 20 3.601562 20 3.792969 L 20 16.207031 C 20 16.398438 19.84375 16.550781 19.65625 16.550781 Z M 19.65625 16.550781 "/>
<path style=" stroke:none;fill-rule:nonzero;fill:rgb(96.078431%,96.078431%,96.078431%);fill-opacity:1;" d="M 20 3.792969 C 20 3.601562 19.84375 3.449219 19.65625 3.449219 L 18.113281 3.449219 L 11.722656 7.632812 L 11.722656 3.449219 L 8.277344 3.449219 L 8.277344 7.632812 L 1.886719 3.449219 L 0.34375 3.449219 C 0.15625 3.449219 0 3.601562 0 3.792969 L 0 4.683594 L 5.480469 8.277344 L 0 8.277344 L 0 11.722656 L 5.480469 11.722656 L 0 15.316406 L 0 16.207031 C 0 16.398438 0.15625 16.550781 0.34375 16.550781 L 1.886719 16.550781 L 8.277344 12.367188 L 8.277344 16.550781 L 11.722656 16.550781 L 11.722656 12.367188 L 18.113281 16.550781 L 19.65625 16.550781 C 19.84375 16.550781 20 16.398438 20 16.207031 L 20 15.316406 L 14.519531 11.722656 L 20 11.722656 L 20 8.277344 L 14.519531 8.277344 L 20 4.683594 Z M 20 3.792969 "/>
<path style=" stroke:none;fill-rule:nonzero;fill:rgb(100%,29.411765%,33.333333%);fill-opacity:1;" d="M 20 8.964844 L 11.035156 8.964844 L 11.035156 3.449219 L 8.964844 3.449219 L 8.964844 8.964844 L 0 8.964844 L 0 11.035156 L 8.964844 11.035156 L 8.964844 16.550781 L 11.035156 16.550781 L 11.035156 11.035156 L 20 11.035156 Z M 20 8.964844 "/>
<path style=" stroke:none;fill-rule:nonzero;fill:rgb(100%,29.411765%,33.333333%);fill-opacity:1;" d="M 6.988281 11.722656 L 0.0078125 16.253906 C 0.0351562 16.421875 0.171875 16.550781 0.34375 16.550781 L 0.820312 16.550781 L 8.257812 11.722656 Z M 6.988281 11.722656 "/>
<path style=" stroke:none;fill-rule:nonzero;fill:rgb(100%,29.411765%,33.333333%);fill-opacity:1;" d="M 13.53125 11.722656 L 12.265625 11.722656 L 19.691406 16.542969 C 19.863281 16.527344 20 16.386719 20 16.207031 L 20 15.921875 Z M 13.53125 11.722656 "/>
<path style=" stroke:none;fill-rule:nonzero;fill:rgb(100%,29.411765%,33.333333%);fill-opacity:1;" d="M 0 4.171875 L 6.320312 8.277344 L 7.585938 8.277344 L 0.199219 3.480469 C 0.0820312 3.535156 0 3.65625 0 3.792969 Z M 0 4.171875 "/>
<path style=" stroke:none;fill-rule:nonzero;fill:rgb(100%,29.411765%,33.333333%);fill-opacity:1;" d="M 12.992188 8.277344 L 19.988281 3.734375 C 19.957031 3.574219 19.824219 3.449219 19.65625 3.449219 L 19.160156 3.449219 L 11.722656 8.277344 Z M 12.992188 8.277344 "/>
</g>
</svg>
